<?xml version="1.0" encoding="utf-8"?>
<!-- Generator: Adobe Illustrator 23.0.3, SVG Export Plug-In . SVG Version: 6.00 Build 0)  -->
<svg version="1.1" id="Layer_1" xmlns="http://www.w3.org/2000/svg" xmlns:xlink="http://www.w3.org/1999/xlink" x="0px" y="0px"
	 viewBox="0 0 345 77" style="enable-background:new 0 0 345 77;" xml:space="preserve">
<style type="text/css">
	.st0{enable-background:new    ;}
	.st1{fill:#1D1D1B;}
	.st2{font-family:'NeuzeitSLTCE-BookHeavy';}
	.st3{font-size:65.01px;}
	.st4{opacity:0.8;clip-path:url(#SVGID_2_);}
	.st5{clip-path:url(#SVGID_4_);fill:#E3AD1F;}
	.st6{opacity:0.75;clip-path:url(#SVGID_6_);}
	.st7{clip-path:url(#SVGID_8_);fill:#88D1C6;}
	.st8{clip-path:url(#SVGID_10_);fill:#7C5899;}
</style>
<g class="st0">
	<path class="st1" d="M49.8,45c0-2.6-1.4-5.3-5-5.3s-5.3,3.3-5.3,6v20.8h-9.4V46c0-3.5-1.2-6.2-5.1-6.2c-3.8,0-5.3,3.2-5.3,6.5v20.3
		h-9.4V33.2h9v4.4h0.1c3-4.4,6.2-5.3,10.1-5.3c2.2,0,6.6,0.6,9,5.2c3.3-4.4,7-5.2,9.8-5.2c5.7,0,10.8,3.3,10.8,10.3v24h-9.4V45z"/>
	<path class="st1" d="M75.2,52.5c0.4,3.9,2.8,7.8,7.8,7.8c2.9,0,5.4-1.4,6.7-4l9.1,0.7c-2.3,6.8-8.4,10.4-16.3,10.4
		c-10.1,0-17.1-6.9-17.1-17.6c0-10.8,7-17.7,17.1-17.7c10.1,0,17.1,6.9,17.1,17.7v2.6H75.2z M90.3,46.5c-0.3-3.2-2.8-7.2-7.3-7.2
		c-4.9,0-7.3,3.4-7.8,7.2H90.3z"/>
</g>
<g class="st0">
	<path class="st1" d="M130.6,61.9h-0.1c-2.7,4-6.6,5.6-10.9,5.6c-9.3,0-15.6-8.4-15.6-17.7c0-9.3,5.9-17.6,15.5-17.6
		c4.3,0,7.5,1.4,10.6,5.5h0.1v-20h9.4v48.9h-9V61.9z M121.9,40.2c-5.4,0-8.2,4.8-8.2,9.9c0,5.3,2.9,9.9,8.5,9.9
		c5.3,0,8.3-4.4,8.3-10C130.5,44.9,127.8,40.2,121.9,40.2z"/>
</g>
<text transform="matrix(1 0 0 1 144.542 66.5645)" class="st1 st2 st3"> </text>
<text transform="matrix(1 0 0 1 167.166 66.5645)" class="st1 st2 st3"> </text>
<text transform="matrix(1 0 0 1 185.2383 66.5645)" class="st1 st2 st3"> </text>
<g class="st0">
	<path class="st1" d="M236.9,44.4h-0.1l-5.9,22.2h-9.8l-10.7-33.4h9.9l5.5,22.8h0.1l5.9-22.8h9.8l5.9,22.8h0.1l5.5-22.8h9.9
		l-10.7,33.4h-9.8L236.9,44.4z"/>
</g>
<g class="st0">
	<path class="st1" d="M274.6,52.5c0.4,3.9,2.8,7.8,7.8,7.8c2.9,0,5.4-1.4,6.7-4l9.1,0.7c-2.3,6.8-8.4,10.4-16.2,10.4
		c-10.1,0-17.1-6.9-17.1-17.6c0-10.8,7-17.7,17.1-17.7c10.1,0,17.1,6.9,17.1,17.7v2.6H274.6z M289.6,46.5c-0.3-3.2-2.8-7.2-7.3-7.2
		c-4.9,0-7.3,3.4-7.8,7.2H289.6z"/>
</g>
<g class="st0">
	<path class="st1" d="M305.1,17.7h9.4v48.9h-9.4V17.7z"/>
</g>
<g class="st0">
	<path class="st1" d="M322.1,17.7h9.4v48.9h-9.4V17.7z"/>
</g>
<g>
	<g>
		<defs>
			<rect id="SVGID_1_" x="-234.5" y="-270" width="792" height="612"/>
		</defs>
		<clipPath id="SVGID_2_">
			<use xlink:href="#SVGID_1_"  style="overflow:visible;"/>
		</clipPath>
		<g class="st4">
			<g>
				<g>
					<defs>
						<rect id="SVGID_3_" x="151.9" y="5.7" width="80.6" height="67.2"/>
					</defs>
					<clipPath id="SVGID_4_">
						<use xlink:href="#SVGID_3_"  style="overflow:visible;"/>
					</clipPath>
					<path class="st5" d="M227.3,42.2c3.3-3.9,5.2-8.8,5.2-14.3c0-12.3-9.9-22.2-22.2-22.2c-7.5,0-14.1,3.7-18.1,9.3
						c-4-5.6-10.6-9.3-18.1-9.3c-12.3,0-22.2,9.9-22.2,22.2c0,5.7,2.2,10.9,5.7,14.8l0,0l0.2,0.1c1.2,1.3,2.4,2.4,3.8,3.4l30.5,26.6
						l30.1-26.2C224.1,45.4,225.8,44,227.3,42.2L227.3,42.2L227.3,42.2z"/>
				</g>
			</g>
		</g>
	</g>
	<g>
		<defs>
			<rect id="SVGID_5_" x="-234.5" y="-270" width="792" height="612"/>
		</defs>
		<clipPath id="SVGID_6_">
			<use xlink:href="#SVGID_5_"  style="overflow:visible;"/>
		</clipPath>
		<g class="st6">
			<g>
				<g>
					<defs>
						<rect id="SVGID_7_" x="115.8" y="5.7" width="80.6" height="67.2"/>
					</defs>
					<clipPath id="SVGID_8_">
						<use xlink:href="#SVGID_7_"  style="overflow:visible;"/>
					</clipPath>
					<path class="st7" d="M191.1,42.2c3.3-3.9,5.2-8.8,5.2-14.3c0-12.3-9.9-22.2-22.2-22.2c-7.5,0-14.1,3.7-18.1,9.3
						c-4-5.6-10.6-9.3-18.1-9.3c-12.3,0-22.2,9.9-22.2,22.2c0,5.7,2.2,10.9,5.7,14.8l0,0l0.2,0.1c1.2,1.3,2.4,2.4,3.8,3.4l30.5,26.6
						l30.1-26.2C187.9,45.4,189.6,44,191.1,42.2L191.1,42.2L191.1,42.2z"/>
				</g>
			</g>
		</g>
	</g>
	<g>
		<defs>
			<rect id="SVGID_9_" x="-234.5" y="-270" width="792" height="612"/>
		</defs>
		<clipPath id="SVGID_10_">
			<use xlink:href="#SVGID_9_"  style="overflow:visible;"/>
		</clipPath>
		<path class="st8" d="M190.8,42.3L190.8,42.3L190.8,42.3c3.3-3.9,5.3-8.9,5.3-14.3c0-5.3-1.8-10.1-4.9-13.9
			c-0.2-0.2-0.4-0.4-0.5-0.6c-0.2-0.3-0.4-0.5-0.7-0.8c-0.2-0.2-0.4-0.5-0.7-0.7c-0.3-0.3-0.7-0.6-1-0.9c-0.2-0.2-0.4-0.3-0.6-0.5
			c-0.4-0.3-0.8-0.7-1.3-1c-0.2-0.1-0.3-0.2-0.5-0.3c-0.4-0.3-0.8-0.5-1.2-0.7c-0.1-0.1-0.3-0.2-0.4-0.2c-0.5-0.3-1.1-0.5-1.6-0.8
			c-0.1-0.1-0.3-0.1-0.4-0.2c-0.6-0.2-1.2-0.5-1.8-0.6c-0.1,0-0.1,0-0.2,0c-0.6-0.2-1.2-0.3-1.8-0.5c-0.1,0-0.2-0.1-0.3-0.1
			c-0.6-0.1-1.3-0.2-1.9-0.3c-0.1,0-0.2,0-0.4,0c-0.7-0.1-1.4-0.1-2.1-0.1c-0.7,0-1.4,0-2.1,0.1c-0.1,0-0.2,0-0.4,0
			c-0.7,0.1-1.3,0.2-1.9,0.3c-0.1,0-0.2,0-0.3,0.1c-0.6,0.1-1.2,0.3-1.8,0.5c-0.1,0-0.1,0-0.2,0c-0.6,0.2-1.2,0.4-1.8,0.6
			c-0.1,0.1-0.3,0.1-0.4,0.2c-0.5,0.2-1.1,0.5-1.6,0.8c-0.2,0.1-0.3,0.2-0.4,0.3c-0.4,0.2-0.8,0.5-1.2,0.7c-0.2,0.1-0.3,0.2-0.5,0.3
			c-0.4,0.3-0.9,0.6-1.3,1c-0.2,0.2-0.4,0.3-0.6,0.5c-0.3,0.3-0.7,0.6-1,0.9c-0.2,0.2-0.4,0.4-0.7,0.7c-0.2,0.2-0.5,0.5-0.7,0.8
			c-0.2,0.2-0.4,0.4-0.5,0.6c-3.1,3.8-4.9,8.6-4.9,13.9c0,5.7,2.2,10.9,5.7,14.8l0,0l0.2,0.1c1.2,1.3,2.4,2.4,3.8,3.4l12.4,10.8
			l12-10.5C187.7,45.4,189.4,44,190.8,42.3z"/>
	</g>
</g>
</svg>
