<?xml version="1.0" encoding="utf-8"?>
<!-- Generator: Adobe Illustrator 16.0.4, SVG Export Plug-In . SVG Version: 6.00 Build 0)  -->
<!DOCTYPE svg PUBLIC "-//W3C//DTD SVG 1.1//EN" "http://www.w3.org/Graphics/SVG/1.1/DTD/svg11.dtd">
<svg version="1.1" id="Layer_1" xmlns="http://www.w3.org/2000/svg" xmlns:xlink="http://www.w3.org/1999/xlink" x="0px" y="0px"
	 width="126px" height="77px" viewBox="0 0 126 77" enable-background="new 0 0 126 77" xml:space="preserve">
<text transform="matrix(1 0 0 1 33.8755 66.5645)" fill="#1D1D1B" font-family="'NeuzeitSLTCE-BookHeavy'" font-size="65.01"> </text>
<text transform="matrix(1 0 0 1 56.4995 66.5645)" fill="#1D1D1B" font-family="'NeuzeitSLTCE-BookHeavy'" font-size="65.01"> </text>
<text transform="matrix(1 0 0 1 74.5718 66.5645)" fill="#1D1D1B" font-family="'NeuzeitSLTCE-BookHeavy'" font-size="65.01"> </text>
<g>
	<defs>
		<rect id="SVGID_1_" x="-345.167" y="-270" width="792" height="612"/>
	</defs>
	<clipPath id="SVGID_2_">
		<use xlink:href="#SVGID_1_"  overflow="visible"/>
	</clipPath>
	<g opacity="0.7" clip-path="url(#SVGID_2_)">
		<g>
			<defs>
				<rect id="SVGID_3_" x="41.271" y="5.715" width="80.555" height="67.155"/>
			</defs>
			<clipPath id="SVGID_4_">
				<use xlink:href="#SVGID_3_"  overflow="visible"/>
			</clipPath>
			<path clip-path="url(#SVGID_4_)" fill="#F7BC37" d="M116.608,42.202c3.251-3.862,5.217-8.841,5.217-14.285
				c0-12.262-9.939-22.202-22.201-22.202c-7.463,0-14.051,3.695-18.075,9.342C77.523,9.41,70.935,5.715,63.472,5.715
				c-12.262,0-22.201,9.94-22.201,22.202c0,5.71,2.174,10.9,5.716,14.834l-0.021,0.013l0.156,0.137
				c1.153,1.258,2.435,2.396,3.848,3.36L81.438,72.87l30.111-26.247c1.88-1.201,3.568-2.669,5.006-4.363l0.061-0.053L116.608,42.202
				z"/>
		</g>
	</g>
	<g opacity="0.7" clip-path="url(#SVGID_2_)">
		<g>
			<defs>
				<rect id="SVGID_5_" x="5.108" y="5.715" width="80.555" height="67.155"/>
			</defs>
			<clipPath id="SVGID_6_">
				<use xlink:href="#SVGID_5_"  overflow="visible"/>
			</clipPath>
			<path clip-path="url(#SVGID_6_)" fill="#88D1C6" d="M80.446,42.202c3.251-3.862,5.218-8.841,5.218-14.285
				c0-12.262-9.94-22.202-22.202-22.202c-7.463,0-14.051,3.695-18.075,9.342C41.361,9.41,34.774,5.715,27.311,5.715
				c-12.262,0-22.202,9.94-22.202,22.202c0,5.71,2.174,10.9,5.716,14.834l-0.02,0.013l0.157,0.137
				c1.152,1.258,2.433,2.396,3.846,3.36L45.277,72.87l30.111-26.247c1.879-1.201,3.567-2.669,5.005-4.363l0.061-0.053L80.446,42.202
				z"/>
		</g>
	</g>
	<path clip-path="url(#SVGID_2_)" fill="#7C5899" d="M80.179,42.26l0.061-0.053l-0.008-0.005c3.251-3.862,5.217-8.841,5.217-14.286
		c0-5.266-1.843-10.098-4.907-13.904c-0.172-0.213-0.354-0.418-0.533-0.625c-0.223-0.257-0.45-0.508-0.685-0.753
		c-0.216-0.228-0.434-0.454-0.659-0.672c-0.326-0.316-0.663-0.621-1.009-0.917c-0.19-0.163-0.386-0.324-0.581-0.481
		c-0.417-0.332-0.841-0.655-1.281-0.957C75.64,9.5,75.48,9.404,75.324,9.302c-0.39-0.253-0.787-0.496-1.193-0.726
		c-0.147-0.082-0.293-0.17-0.443-0.25c-0.519-0.277-1.052-0.532-1.594-0.769c-0.146-0.063-0.295-0.125-0.443-0.187
		c-0.576-0.234-1.16-0.455-1.759-0.643c-0.057-0.018-0.114-0.031-0.171-0.049c-0.586-0.178-1.185-0.33-1.79-0.46
		c-0.109-0.024-0.218-0.05-0.328-0.072c-0.635-0.126-1.279-0.224-1.932-0.295c-0.122-0.013-0.245-0.022-0.368-0.034
		c-0.676-0.062-1.357-0.103-2.05-0.103c-0.691,0-1.374,0.041-2.05,0.103c-0.122,0.012-0.245,0.021-0.367,0.034
		c-0.652,0.071-1.297,0.169-1.932,0.295c-0.11,0.022-0.219,0.048-0.328,0.072c-0.605,0.13-1.204,0.282-1.79,0.46
		c-0.056,0.018-0.115,0.031-0.171,0.049c-0.6,0.188-1.184,0.408-1.759,0.643c-0.148,0.062-0.297,0.123-0.443,0.187
		c-0.542,0.236-1.074,0.491-1.593,0.767c-0.151,0.082-0.297,0.17-0.445,0.254c-0.405,0.228-0.802,0.471-1.191,0.724
		c-0.157,0.103-0.317,0.198-0.472,0.305c-0.44,0.302-0.864,0.625-1.28,0.957c-0.197,0.157-0.391,0.318-0.582,0.481
		c-0.346,0.296-0.682,0.601-1.009,0.917c-0.225,0.218-0.442,0.444-0.659,0.672c-0.234,0.245-0.461,0.496-0.683,0.752
		c-0.181,0.207-0.363,0.413-0.535,0.626c-3.063,3.807-4.907,8.639-4.907,13.904c0,5.711,2.174,10.9,5.717,14.835l-0.021,0.013
		L46.91,42.9c1.152,1.258,2.433,2.395,3.847,3.36l12.404,10.833l12.013-10.471C77.053,45.422,78.742,43.954,80.179,42.26z"/>
</g>
</svg>
